<svg width="83" height="49" viewBox="0 0 83 49" fill="none" xmlns="http://www.w3.org/2000/svg"><path d="M56.501 34.16c-.17-.41-14.28-28.163-14.509-28.542a9.091 9.091 0 00-3.838-4.358C33.769-1.291 28.136.169 25.567 4.522a9.072 9.072 0 00.053 9.328c.17.41 13.675 26.972 13.904 27.357.17.411.371.806.605 1.19a9.126 9.126 0 003.838 4.365c4.385 2.55 10.018 1.09 12.587-3.263a9.072 9.072 0 00-.053-9.328v-.01z" fill="url(#paint0_linear_1_1903)"/><path d="M40.209 15.378a9.06 9.06 0 002.49-6.245C42.703 4.09 38.583 0 33.503 0a9.22 9.22 0 00-7.55 3.91c-.302.322-23.21 28.348-23.464 28.707A9.061 9.061 0 000 38.862c0 5.043 4.12 9.133 9.2 9.133a9.204 9.204 0 007.544-3.91c.302-.322 23.21-28.349 23.465-28.707z" fill="url(#paint1_linear_1_1903)"/><path d="M79.631 15.378a9.06 9.06 0 002.49-6.245c0-5.043-4.12-9.133-9.2-9.133a9.22 9.22 0 00-7.549 3.91c-.302.322-23.21 28.348-23.465 28.707a9.061 9.061 0 00-2.49 6.245c0 5.043 4.12 9.133 9.2 9.133a9.204 9.204 0 007.544-3.91c.303-.322 23.21-28.349 23.465-28.707h.005z" fill="url(#paint2_linear_1_1903)"/><defs><linearGradient id="paint0_linear_1_1903" x1="15.274" y1="-28.186" x2="76.382" y2="27.729" gradientUnits="userSpaceOnUse"><stop stop-color="#7756DB"/><stop offset=".76" stop-color="#3BF4DE"/></linearGradient><linearGradient id="paint1_linear_1_1903" x1="-11.501" y1="-28.18" x2="49.108" y2="42.498" gradientUnits="userSpaceOnUse"><stop stop-color="#7756DB"/><stop offset=".76" stop-color="#3BF4DE"/></linearGradient><linearGradient id="paint2_linear_1_1903" x1="27.915" y1="-28.18" x2="88.523" y2="42.506" gradientUnits="userSpaceOnUse"><stop stop-color="#7756DB"/><stop offset=".76" stop-color="#3BF4DE"/></linearGradient></defs></svg>